<svg width="124" height="15" viewBox="0 0 124 15" fill="none" xmlns="http://www.w3.org/2000/svg">
<path d="M7.808 6.728V8.056H5.024V10.84H3.696V8.056H0.928V6.728H3.696V3.96H5.024V6.728H7.808ZM7.7255 1.8H14.7175V3.128L10.6375 13H9.0855L13.1335 3.208H7.7255V1.8ZM21.9693 14.6C20.7959 12.2533 20.2093 9.85333 20.2093 7.4C20.2093 4.94667 20.7959 2.54667 21.9693 0.2H23.3613C22.1879 2.54667 21.6013 4.94667 21.6013 7.4C21.6013 9.85333 22.1879 12.2533 23.3613 14.6H21.9693ZM26.9336 1.8H28.2136V13H26.7416V3.4L24.3576 4.104L23.9896 2.824L26.9336 1.8ZM30.0448 13V11.784L33.9968 7.752C35.0528 6.696 35.5808 5.78933 35.5808 5.032C35.5808 4.40267 35.3888 3.912 35.0048 3.56C34.6208 3.208 34.1514 3.032 33.5968 3.032C32.5408 3.032 31.7728 3.53333 31.2928 4.536L30.0448 3.8C30.3968 3.07467 30.8821 2.52533 31.5008 2.152C32.1301 1.77867 32.8234 1.592 33.5807 1.592C34.5194 1.592 35.3354 1.90133 36.0288 2.52C36.7221 3.13867 37.0688 3.97067 37.0688 5.016C37.0688 6.14667 36.4021 7.37867 35.0688 8.712L32.2048 11.56H37.2768V13H30.0448ZM42.806 6.392C43.6593 6.552 44.358 6.92 44.902 7.496C45.446 8.072 45.718 8.80267 45.718 9.688C45.718 10.776 45.3447 11.6347 44.598 12.264C43.8513 12.8933 42.9447 13.208 41.878 13.208C41.0247 13.208 40.2673 13.016 39.606 12.632C38.9447 12.2373 38.4753 11.672 38.198 10.936L39.446 10.2C39.7767 11.2347 40.5873 11.752 41.878 11.752C42.5713 11.752 43.1367 11.5707 43.574 11.208C44.0113 10.8453 44.23 10.3387 44.23 9.688C44.23 9.03733 44.0113 8.53067 43.574 8.168C43.1367 7.79467 42.5713 7.608 41.878 7.608H41.494L40.902 6.696L43.494 3.192H38.518V1.8H45.238V3.112L42.806 6.392ZM48.1045 14.6H46.7125C47.8858 12.2533 48.4725 9.85333 48.4725 7.4C48.4725 4.94667 47.8858 2.54667 46.7125 0.2H48.1045C49.2778 2.54667 49.8645 4.94667 49.8645 7.4C49.8645 9.85333 49.2778 12.2533 48.1045 14.6ZM63.7409 9.48V10.872H62.3809V13H60.8929V10.872H55.1809V9.48L59.1969 1.8H60.7969L56.7809 9.48H60.8929V6.312H62.3809V9.48H63.7409ZM68.3981 6.168C69.4541 6.168 70.3448 6.48267 71.0701 7.112C71.8061 7.73067 72.1741 8.58933 72.1741 9.688C72.1741 10.776 71.8008 11.6347 71.0541 12.264C70.3075 12.8933 69.4008 13.208 68.3341 13.208C67.4808 13.208 66.7181 13.0053 66.0461 12.6C65.3741 12.184 64.9048 11.5867 64.6381 10.808L65.9021 10.088C66.0515 10.632 66.3395 11.048 66.7661 11.336C67.1928 11.6133 67.7155 11.752 68.3341 11.752C69.0381 11.752 69.6088 11.5707 70.0461 11.208C70.4835 10.8453 70.7021 10.3387 70.7021 9.688C70.7021 9.03733 70.4835 8.53067 70.0461 8.168C69.6088 7.79467 69.0488 7.608 68.3661 7.608H65.1981L65.6141 1.8H71.7421V3.192H66.9581L66.7661 6.168H68.3981ZM77.0696 5.672C78.1896 5.672 79.1123 6.024 79.8376 6.728C80.563 7.42133 80.9256 8.32267 80.9256 9.432C80.9256 10.5413 80.563 11.448 79.8376 12.152C79.1123 12.856 78.1896 13.208 77.0696 13.208C75.939 13.208 75.011 12.856 74.2856 12.152C73.571 11.448 73.2136 10.5413 73.2136 9.432C73.2136 8.568 73.4376 7.82133 73.8856 7.192L77.4856 1.8H79.1816L76.5416 5.704C76.7763 5.68267 76.9523 5.672 77.0696 5.672ZM75.3416 11.144C75.7896 11.5707 76.3656 11.784 77.0696 11.784C77.7736 11.784 78.3443 11.5707 78.7816 11.144C79.2296 10.7067 79.4536 10.136 79.4536 9.432C79.4536 8.728 79.2296 8.16267 78.7816 7.736C78.3443 7.30933 77.7736 7.096 77.0696 7.096C76.355 7.096 75.779 7.30933 75.3416 7.736C74.9043 8.16267 74.6856 8.728 74.6856 9.432C74.6856 10.136 74.9043 10.7067 75.3416 11.144ZM85.663 1.8H92.655V3.128L88.575 13H87.023L91.071 3.208H85.663V1.8ZM99.4343 7.208C99.9783 7.48533 100.405 7.85867 100.714 8.328C101.024 8.79733 101.178 9.33067 101.178 9.928C101.178 10.952 100.821 11.7573 100.106 12.344C99.3916 12.92 98.4689 13.208 97.3383 13.208C96.2183 13.208 95.3009 12.92 94.5863 12.344C93.8716 11.7573 93.5143 10.952 93.5143 9.928C93.5143 9.33067 93.6689 8.79733 93.9783 8.328C94.2876 7.85867 94.7143 7.48533 95.2582 7.208C94.3409 6.632 93.8823 5.816 93.8823 4.76C93.8823 3.74667 94.2183 2.968 94.8903 2.424C95.5729 1.86933 96.3889 1.592 97.3383 1.592C98.2983 1.592 99.1143 1.86933 99.7863 2.424C100.469 2.968 100.81 3.74667 100.81 4.76C100.81 5.816 100.352 6.632 99.4343 7.208ZM97.3383 3.016C96.7729 3.016 96.2983 3.16533 95.9143 3.464C95.5409 3.76267 95.3543 4.20533 95.3543 4.792C95.3543 5.35733 95.5463 5.8 95.9303 6.12C96.3143 6.42933 96.7836 6.584 97.3383 6.584C97.8929 6.584 98.3623 6.42933 98.7463 6.12C99.1303 5.8 99.3223 5.35733 99.3223 4.792C99.3223 4.20533 99.1356 3.76267 98.7623 3.464C98.3889 3.16533 97.9143 3.016 97.3383 3.016ZM97.3383 11.784C98.0529 11.784 98.6236 11.6187 99.0503 11.288C99.4876 10.9467 99.7063 10.4613 99.7063 9.832C99.7063 9.21333 99.4876 8.73867 99.0503 8.408C98.6236 8.06667 98.0529 7.896 97.3383 7.896C96.6343 7.896 96.0636 8.06667 95.6263 8.408C95.1996 8.73867 94.9863 9.21333 94.9863 9.832C94.9863 10.4613 95.1996 10.9467 95.6263 11.288C96.0636 11.6187 96.6343 11.784 97.3383 11.784ZM113.941 5.352C113.941 6.216 113.712 6.968 113.253 7.608H113.269L109.653 13H107.973L110.629 9.08C110.395 9.10133 110.213 9.112 110.085 9.112C108.955 9.112 108.027 8.76533 107.301 8.072C106.587 7.368 106.229 6.46133 106.229 5.352C106.229 4.24267 106.587 3.34133 107.301 2.648C108.027 1.944 108.955 1.592 110.085 1.592C111.216 1.592 112.139 1.944 112.853 2.648C113.579 3.34133 113.941 4.24267 113.941 5.352ZM108.357 3.656C107.92 4.08267 107.701 4.648 107.701 5.352C107.701 6.056 107.92 6.62667 108.357 7.064C108.805 7.49067 109.381 7.704 110.085 7.704C110.789 7.704 111.36 7.49067 111.797 7.064C112.245 6.62667 112.469 6.056 112.469 5.352C112.469 4.648 112.251 4.08267 111.813 3.656C111.376 3.22933 110.8 3.016 110.085 3.016C109.381 3.016 108.805 3.22933 108.357 3.656ZM122.615 11.624C121.857 12.68 120.796 13.208 119.431 13.208C118.065 13.208 117.004 12.68 116.247 11.624C115.489 10.568 115.111 9.16 115.111 7.4C115.111 5.64 115.489 4.232 116.247 3.176C117.004 2.12 118.065 1.592 119.431 1.592C120.796 1.592 121.857 2.12 122.615 3.176C123.372 4.232 123.751 5.64 123.751 7.4C123.751 9.16 123.372 10.568 122.615 11.624ZM117.335 10.616C117.825 11.3733 118.524 11.752 119.431 11.752C120.337 11.752 121.036 11.3733 121.527 10.616C122.028 9.85867 122.279 8.78667 122.279 7.4C122.279 6.01333 122.028 4.94133 121.527 4.184C121.036 3.416 120.337 3.032 119.431 3.032C118.524 3.032 117.825 3.41067 117.335 4.168C116.844 4.92533 116.599 6.00267 116.599 7.4C116.599 8.78667 116.844 9.85867 117.335 10.616Z" fill="black"/>
</svg>
